<?xml version="1.0" encoding="utf-8"?>
<!-- Generator: Adobe Illustrator 25.3.0, SVG Export Plug-In . SVG Version: 6.00 Build 0)  -->
<svg version="1.1" id="Layer_1" xmlns="http://www.w3.org/2000/svg" xmlns:xlink="http://www.w3.org/1999/xlink" x="0px" y="0px"
	 viewBox="0 0 457.2 457.2" style="enable-background:new 0 0 457.2 457.2;" xml:space="preserve">
<style type="text/css">
	.st0{fill:#FFFFFF;}
</style>
<g>
	<g>
		<path class="st0" d="M456.1,216.5c-2.3-5.6-7.8-9.3-13.9-9.3h-29.5C401.9,103.3,313.7,22,206.9,22C92.8,22,0,114.8,0,228.9
			c0,108.7,84.2,198,190.8,206.3c4.2,0.3,8.3-1.1,11.3-3.9c3.1-2.8,4.8-6.8,4.8-11v-70.4c0-7.6-5.6-13.9-13.2-14.9
			C141,328.5,100,283.4,100,228.9c0-59,48-106.9,106.9-106.9c51.5,0,94.7,36.6,104.7,85.3h-26.1c-6.1,0-11.5,3.7-13.9,9.3
			c-2.3,5.6-1,12.1,3.3,16.3l78.4,78.4c2.9,2.9,6.8,4.4,10.6,4.4c3.8,0,7.7-1.5,10.6-4.4l78.4-78.4
			C457.1,228.5,458.4,222.1,456.1,216.5z"/>
	</g>
</g>
</svg>
